<svg xmlns="http://www.w3.org/2000/svg" version="1.1" xmlns:xlink="http://www.w3.org/1999/xlink" xmlns:svgjs="http://svgjs.dev/svgjs" width="1000" height="1000"><g clip-path="url(#SvgjsClipPath1151)"><rect width="1000" height="1000" fill="#ffffff"></rect><g transform="matrix(10.447761194029852,0,0,10.447761194029852,165.67164179104475,150)"><svg xmlns="http://www.w3.org/2000/svg" version="1.1" xmlns:xlink="http://www.w3.org/1999/xlink" xmlns:svgjs="http://svgjs.dev/svgjs" width="64" height="67"><svg width="64" height="67" viewBox="0 0 64 67" fill="none" xmlns="http://www.w3.org/2000/svg">
<path d="M13.015 -0.453564C9.12664 -0.0574989 6.05419 1.09469 6.06693 2.16287C6.07968 2.90699 6.57688 3.20704 8.32347 3.54309C11.1537 4.07118 12.2756 5.18737 12.4286 7.62377L12.5051 8.75195L13.1425 8.28388C17.2094 5.28338 21.3145 3.41107 26.4395 2.22288C28.4155 1.7668 28.4283 1.79081 26.0187 1.04668C22.3726 -0.0815029 20.2308 -0.417558 16.3934 -0.465566C14.8126 -0.48957 13.2955 -0.477568 13.015 -0.453564Z" fill="#0A65CC"></path>
<path d="M32.5845 3.03902C22.5768 3.66312 14.5068 7.55176 8.41289 14.6689C6.10536 17.3814 3.75959 21.198 2.38272 24.4986C1.15884 27.451 0.228179 31.2797 -0.0522938 34.5682C-0.19253 36.2365 -0.205279 38.7929 -0.0650426 39.369L0.01145 39.7291L0.903863 38.9609C1.40107 38.5289 2.30623 37.7367 2.93092 37.1846L4.07831 36.1885L4.53726 34.6642C5.93963 30.0675 8.18341 26.4909 11.6383 23.3464C15.8072 19.5417 21.4039 16.9973 27.3448 16.2172C28.0077 16.1332 27.995 16.1692 27.2046 17.2734C25.9807 18.9896 23.4564 20.994 20.3457 22.7223C19.5426 23.1663 18.7266 23.6704 18.5354 23.8144C18.1912 24.0905 18.0764 24.4745 18.2804 24.7506C18.7649 25.4347 21.7098 25.4347 25.4452 24.7266C30.3408 23.8024 34.5733 21.6301 38.1685 18.2095L39.4816 16.9613L40.4633 17.1653C42.0696 17.5254 45.4225 18.6056 47.3859 19.3977C48.393 19.8058 50.9683 20.97 53.1101 21.9781C58.5028 24.5106 61.2565 25.5187 62.8119 25.5187C63.4238 25.5187 63.5768 25.4707 63.7425 25.2547C64.0485 24.8466 63.9975 24.2705 63.615 23.8504C63.4365 23.6464 62.8246 23.1423 62.2509 22.7223C60.7211 21.5941 59.8286 20.6579 59.5609 19.9258C59.4462 19.5897 59.2167 18.6416 59.0382 17.8135C58.3115 14.2369 56.8582 11.6444 54.2064 9.22003C51.5292 6.77163 47.8831 4.99534 43.2935 3.91516C40.1828 3.18304 35.8482 2.82298 32.5845 3.03902ZM51.4782 13.9008C52.2559 14.2129 52.9316 14.933 53.1738 15.7251C53.4798 16.6733 53.416 16.9013 53.0336 16.2772C52.6256 15.5931 52.2941 15.269 51.5929 14.801C50.8535 14.3209 49.7061 13.9968 48.7372 13.9968C48.138 13.9848 47.9978 13.9608 48.1763 13.8648C48.8902 13.4687 50.4583 13.4807 51.4782 13.9008Z" fill="#0A65CC"></path>
<path d="M36.5367 22.2902C36.5367 22.5782 35.2873 24.9066 34.4332 26.2388C33.9742 26.9349 33.6045 27.6311 33.6045 27.7751C33.6045 28.2792 34.2929 28.2432 36.5112 27.6071C37.9773 27.187 39.3159 26.5989 40.6036 25.7948C41.7892 25.0506 43.9947 23.1303 43.8417 22.9863C43.6888 22.8543 39.4944 22.3022 37.9136 22.2062C36.7789 22.1342 36.5367 22.1582 36.5367 22.2902Z" fill="#0A65CC"></path>
<path d="M23.4692 28.6392C20.5115 28.9513 17.7323 29.9235 15.2462 31.5317C13.0917 32.9119 11.3579 34.5202 7.53325 38.6609C5.4297 40.9413 3.03293 43.2096 1.75806 44.1218C0.852893 44.7699 0.840144 44.7939 0.903888 45.238C1.04412 46.1741 2.14052 49.0306 2.95644 50.5669C7.53325 59.2323 15.8837 65.0172 26.2867 66.7095C28.5305 67.0696 33.5025 67.1056 35.8355 66.7575C39.4179 66.2414 42.8091 65.1973 46.0855 63.613C48.4695 62.4488 50.0249 61.4887 52.0519 59.8804C58.0821 55.1156 61.8047 48.7066 62.9904 41.0613C63.1688 39.8731 63.4621 36.5485 63.3983 36.4885C63.3728 36.4645 63.2071 37.1246 63.0159 37.9408C61.0653 46.3302 55.1371 52.3552 46.8249 54.3955C44.6321 54.9356 41.3557 55.1516 38.8315 54.9356C30.6722 54.2275 24.3234 49.9067 22.3091 43.6897C21.9903 42.7176 21.9521 42.4415 21.9521 40.6412C21.9393 38.4209 22.0796 37.7367 22.8445 36.2485C24.5911 32.7919 28.7472 31.3157 32.2658 32.8999C32.6228 33.056 33.0308 33.284 33.1838 33.404C33.4642 33.6201 33.4515 33.6201 32.2913 33.6201C31.2714 33.6201 31.042 33.6681 30.481 33.9441C28.6452 34.8563 27.8675 36.6686 28.4922 38.6009C29.3974 41.3733 33.1583 42.1655 35.402 40.0531C38.2705 37.3527 36.4092 32.3479 31.6539 29.9595C29.5376 28.8913 26.2102 28.3512 23.4692 28.6392Z" fill="#9FCCFF"></path>
</svg></svg></g></g><defs><clipPath id="SvgjsClipPath1151"><rect width="1000" height="1000" x="0" y="0" rx="500" ry="500"></rect></clipPath></defs></svg>