<svg width="25" height="25" viewBox="0 0 25 25" fill="none" xmlns="http://www.w3.org/2000/svg">
<path d="M22.1807 3.0354C19.1047 4.3094 5.91525 9.77265 2.271 11.2617C-0.173001 12.2154 1.25775 13.1097 1.25775 13.1097C1.25775 13.1097 3.344 13.8249 5.1325 14.3614C6.92075 14.8979 7.8745 14.3019 7.8745 14.3019L16.2795 8.6389C19.26 6.61215 18.5448 8.28115 17.8293 8.99665C16.2795 10.5467 13.7162 12.9904 11.5702 14.9577C10.6165 15.7922 11.0932 16.5074 11.5107 16.8652C13.0605 18.1767 17.293 20.8592 17.5312 21.0379C18.7905 21.9294 21.2675 23.2127 21.6443 20.5014L23.1345 11.1427C23.6115 7.9834 24.0883 5.0624 24.1478 4.2279C24.3268 2.2009 22.1807 3.0354 22.1807 3.0354Z" fill="#0A65CC"/>
</svg>
